<svg id="baseline-commute-24px" xmlns="http://www.w3.org/2000/svg" viewBox="0 0 50 50">
  <defs>
    <style>
      .cls-1 {
        fill: #fff;
      }

      .cls-2 {
        fill: none;
      }
    </style>
  </defs>
  <path id="Path_45" data-name="Path 45" class="cls-1" d="M22.833,4H8.25A6.242,6.242,0,0,0,2,10.25V26.917a6.242,6.242,0,0,0,6.25,6.25L6.167,35.25v2.083H8.25L12.417,33.1l4.167.063V22.75H6.167V8.125l18.75.042v4.167h4.167V10.25A6.242,6.242,0,0,0,22.833,4ZM8.25,24.833a2.083,2.083,0,1,1-2.083,2.083A2.089,2.089,0,0,1,8.25,24.833Zm32.437-9.042a2.089,2.089,0,0,0-2.021-1.375H23.688a2.116,2.116,0,0,0-2.042,1.375l-2.979,8.563.021,11.479a1.5,1.5,0,0,0,1.438,1.5h1.292a1.555,1.555,0,0,0,1.417-1.583V33.167H39.5V35.75a1.573,1.573,0,0,0,1.438,1.583h1.271a1.5,1.5,0,0,0,1.438-1.5l.021-2.854V24.354l-2.979-8.563Zm-17,.708H38.667l2.146,6.25H21.542l2.146-6.25ZM22.833,29a2.083,2.083,0,1,1,2.083-2.083A2.089,2.089,0,0,1,22.833,29ZM39.5,29a2.083,2.083,0,1,1,2.083-2.083A2.089,2.089,0,0,1,39.5,29Z" transform="translate(2.167 4.333)"/>
  <path id="Path_46" data-name="Path 46" class="cls-2" d="M0,0H50V50H0Z"/>
</svg>
