<svg xmlns="http://www.w3.org/2000/svg" viewBox="0 0 75 67">
  <defs>
    <style>
      .cls-1 {
        fill: none;
      }

      .cls-2 {
        fill: #fff;
      }
    </style>
  </defs>
  <g id="Group_108" data-name="Group 108" transform="translate(-524 -1104)">
    <g id="baseline-work-24px_1_" data-name="baseline-work-24px (1)" transform="translate(549 1121)">
      <path id="Path_62" data-name="Path 62" class="cls-1" d="M0,0H50V50H0Z"/>
      <path id="Path_63" data-name="Path 63" class="cls-2" d="M43.4,11.474H34.2V6.737A4.654,4.654,0,0,0,29.6,2H20.4a4.654,4.654,0,0,0-4.6,4.737v4.737H6.6a4.635,4.635,0,0,0-4.577,4.737L2,42.263A4.654,4.654,0,0,0,6.6,47H43.4A4.654,4.654,0,0,0,48,42.263V16.211A4.654,4.654,0,0,0,43.4,11.474Zm-13.8,0H20.4V6.737h9.2Z"/>
    </g>
    <path id="Subtraction_19" data-name="Subtraction 19" class="cls-2" d="M1449.5-160H1428v-5.25a6.231,6.231,0,0,1,2.3-4.586,18.193,18.193,0,0,1,5.576-3.282A38.976,38.976,0,0,1,1449-175.75c.748,0,1.569.04,2.44.119A6.452,6.452,0,0,0,1449.5-171v11Zm-.5-21a10.432,10.432,0,0,1-7.426-3.075,10.432,10.432,0,0,1-3.075-7.426,10.431,10.431,0,0,1,3.075-7.425A10.433,10.433,0,0,1,1449-202a10.433,10.433,0,0,1,7.426,3.074,10.431,10.431,0,0,1,3.075,7.425,10.432,10.432,0,0,1-3.075,7.426A10.432,10.432,0,0,1,1449-181Z" transform="translate(-904 1306)"/>
  </g>
</svg>
